<?xml version="1.0" standalone="no"?>
<!DOCTYPE svg PUBLIC "-//W3C//DTD SVG 20010904//EN"
 "http://www.w3.org/TR/2001/REC-SVG-20010904/DTD/svg10.dtd">
<svg version="1.0" xmlns="http://www.w3.org/2000/svg"
 width="612.000000pt" height="612.000000pt" viewBox="0 0 612.000000 612.000000"
 preserveAspectRatio="xMidYMid meet">

<g transform="translate(0.000000,612.000000) scale(0.100000,-0.100000)"
fill="#000000" stroke="none">
<path d="M1245 4611 c-56 -25 -111 -90 -129 -152 -23 -77 -24 -2078 -1 -2155
19 -64 65 -119 126 -149 l48 -25 686 0 685 0 0 -125 0 -125 -88 0 c-73 0 -92
-3 -105 -18 -21 -23 -22 -51 -1 -80 l15 -22 575 0 c561 0 574 0 594 20 24 24
25 48 4 78 -14 20 -23 22 -105 22 l-89 0 0 94 0 94 -42 7 c-24 3 -51 9 -60 11
-16 5 -18 -4 -18 -100 l0 -106 -280 0 -281 0 3 123 3 122 214 3 213 2 -58 32
c-33 17 -61 34 -64 38 -3 3 -33 25 -67 49 -35 23 -63 46 -63 51 0 6 -320 11
-838 12 l-839 3 -26 30 c-15 17 -27 36 -27 42 0 10 174 13 820 15 l820 3 -38
57 -37 57 -785 3 -785 3 -2 945 c-3 922 -3 946 17 977 42 69 -118 63 1818 63
1294 0 1758 -3 1777 -12 13 -6 34 -30 45 -53 20 -41 20 -56 18 -981 l-3 -939
-177 -5 -177 -5 54 -57 54 -58 120 0 c83 0 121 -4 121 -11 0 -7 -15 -26 -33
-43 -27 -26 -32 -35 -23 -49 8 -13 6 -20 -9 -31 -22 -16 -19 -19 49 -70 l39
-30 39 44 c72 81 69 24 66 1196 l-3 1049 -22 40 c-12 22 -36 54 -55 72 -71 68
78 63 -1880 63 -1694 0 -1775 -1 -1813 -19z"/>
<path d="M2242 4299 c-122 -21 -235 -107 -293 -225 -27 -54 -33 -81 -37 -147
-11 -224 146 -403 373 -424 l61 -6 54 58 c44 46 95 88 168 140 1 1 -1 16 -4
33 l-7 32 -41 -45 c-85 -91 -217 -116 -329 -62 -60 30 -95 65 -130 131 -17 32
-22 58 -22 121 0 70 4 87 29 133 45 81 118 130 216 146 76 13 206 -43 254
-108 l19 -26 23 57 c13 32 24 63 24 68 0 14 -62 62 -117 90 -43 21 -148 47
-177 44 -6 -1 -35 -5 -64 -10z"/>
<path d="M2986 4300 c-115 -20 -231 -111 -288 -227 -31 -63 -33 -75 -33 -168
0 -88 3 -107 28 -159 47 -101 118 -172 207 -210 l35 -14 55 48 c36 33 49 50
40 53 -8 3 -34 10 -57 16 -178 48 -251 291 -132 441 126 160 383 130 474 -55
29 -58 28 -184 -2 -243 -18 -37 -19 -42 -5 -37 10 4 43 12 75 18 54 10 58 13
67 46 51 185 -68 407 -252 471 -67 23 -149 30 -212 20z"/>
<path d="M3742 4299 c-79 -13 -222 -92 -222 -123 0 -6 10 -36 23 -67 l23 -57
32 38 c77 92 224 121 336 66 59 -29 94 -64 129 -130 33 -63 31 -183 -5 -252
-15 -28 -40 -63 -57 -76 l-29 -25 51 -37 52 -36 34 37 c18 21 48 67 65 103 28
59 31 74 31 165 0 91 -3 106 -31 166 -57 120 -167 204 -300 228 -64 12 -58 12
-132 0z"/>
<path d="M3462 3650 c-266 -37 -501 -218 -595 -459 -67 -175 -62 -400 13 -567
145 -322 457 -483 815 -420 80 14 171 45 213 72 21 14 26 12 85 -37 34 -29 62
-55 61 -58 0 -3 -4 -23 -8 -44 -12 -55 5 -85 102 -178 48 -46 139 -133 202
-194 301 -289 283 -275 342 -275 51 0 54 2 107 58 102 108 203 227 212 251 21
54 3 84 -138 223 -74 73 -185 183 -247 243 -194 193 -198 195 -259 195 -51 0
-57 3 -113 53 l-58 54 27 64 c39 94 57 182 57 287 0 124 -22 217 -78 332 -39
81 -60 109 -136 185 -69 69 -110 101 -171 132 -140 72 -294 102 -433 83z m288
-150 c186 -62 344 -236 395 -435 35 -139 8 -327 -66 -450 -41 -69 -116 -155
-134 -155 -7 0 -15 -4 -17 -9 -6 -15 -112 -78 -168 -98 -181 -68 -376 -44
-548 66 -133 86 -209 189 -251 341 -58 207 2 438 152 589 168 170 410 227 637
151z m449 -1104 l25 -26 -35 -38 c-18 -20 -37 -41 -42 -47 -7 -8 -97 71 -97
86 0 4 17 25 37 47 l37 41 25 -19 c14 -10 37 -30 50 -44z m378 -263 c109 -105
217 -207 238 -226 l39 -35 -59 -68 c-33 -37 -75 -83 -92 -101 -18 -18 -33 -37
-33 -43 0 -16 -31 3 -78 47 -22 21 -114 109 -204 195 -91 87 -177 167 -192
179 -17 13 -25 27 -21 36 10 27 179 212 192 210 6 -1 101 -88 210 -194z"/>
<path d="M3529 3394 c5 -10 26 -37 46 -58 72 -78 135 -246 135 -358 l0 -58
-307 -1 c-170 -1 -315 -2 -323 -3 -17 -1 -17 -49 1 -128 l11 -48 324 0 c357 0
369 2 399 60 39 75 27 259 -26 404 -32 89 -85 182 -107 191 -8 3 -49 8 -90 12
-71 6 -74 5 -63 -13z"/>
<path d="M3953 2818 c-6 -24 -14 -51 -18 -60 -6 -15 -2 -18 29 -18 39 0 51 17
63 88 5 31 5 32 -29 32 -32 0 -35 -3 -45 -42z"/>
<path d="M3324 2490 c103 -66 288 -80 393 -29 130 62 139 59 -166 59 l-275 0
48 -30z"/>
<path d="M1845 3562 c-56 -41 -155 -148 -194 -210 -104 -164 -153 -442 -97
-550 31 -59 45 -62 357 -62 264 0 281 1 273 18 -4 9 -14 50 -23 90 l-15 72
-245 0 -244 0 6 83 c9 124 55 235 142 343 41 51 119 124 152 143 15 8 11 15
-28 55 l-45 47 -39 -29z"/>
<path d="M2594 3562 c-61 -45 -159 -155 -203 -230 -98 -165 -141 -426 -86
-532 27 -53 56 -60 241 -60 l166 0 -5 33 c-3 17 -9 58 -13 90 l-6 57 -141 0
-140 0 6 83 c12 183 120 363 286 479 l24 17 -45 46 -44 45 -40 -28z"/>
<path d="M4200 3555 l-34 -35 21 -22 c27 -31 143 -169 167 -199 53 -69 106
-229 106 -326 0 -49 -2 -53 -24 -53 -21 0 -24 -5 -30 -57 -4 -32 -10 -73 -13
-90 l-5 -33 51 0 c100 0 138 42 148 160 11 133 -31 303 -108 433 -41 69 -181
222 -225 245 -18 10 -26 6 -54 -23z"/>
</g>
</svg>
